<svg width="28" height="28" viewBox="0 0 28 28" fill="none" xmlns="http://www.w3.org/2000/svg">
<path d="M4 0.5H27.5V27.5H4C2.067 27.5 0.5 25.933 0.5 24V4C0.5 2.067 2.067 0.5 4 0.5Z" fill="url(#paint0_linear_101_4949)"/>
<path fill-rule="evenodd" clip-rule="evenodd" d="M14 8C14.3682 8 14.6667 8.29848 14.6667 8.66667V13.3333H19.3333C19.7015 13.3333 20 13.6318 20 14C20 14.3682 19.7015 14.6667 19.3333 14.6667H14.6667V19.3333C14.6667 19.7015 14.3682 20 14 20C13.6318 20 13.3333 19.7015 13.3333 19.3333V14.6667H8.66667C8.29848 14.6667 8 14.3682 8 14C8 13.6318 8.29848 13.3333 8.66667 13.3333H13.3333V8.66667C13.3333 8.29848 13.6318 8 14 8Z" fill="#6B7280"/>
<path d="M4 0.5H27.5V27.5H4C2.067 27.5 0.5 25.933 0.5 24V4C0.5 2.067 2.067 0.5 4 0.5Z" stroke="#D1D5DB"/>
<defs>
<linearGradient id="paint0_linear_101_4949" x1="14" y1="0" x2="14" y2="28" gradientUnits="userSpaceOnUse">
<stop stop-color="white"/>
<stop offset="1" stop-color="#F3F4F6"/>
</linearGradient>
</defs>
</svg>
