<svg width="338" height="65" viewBox="0 0 338 65" fill="none" xmlns="http://www.w3.org/2000/svg">
<path d="M28.17 0.999846C27.0274 1.11198 25.9189 1.45201 24.91 1.99985C24.75 2.08985 21.68 3.84985 18.09 5.92985L7.84 11.8198C6.1928 12.6911 4.59685 13.656 3.06 14.7098C2.61817 15.0867 2.20689 15.498 1.83 15.9398C0.996987 16.9837 0.424529 18.2108 0.16 19.5198C0 20.4098 0 19.6698 0 32.9998C0 46.3298 0 45.5998 0.16 46.4998C0.386904 47.6109 0.837194 48.6642 1.48354 49.5959C2.12989 50.5276 2.95881 51.3182 3.92 51.9198C4.2 52.0898 24.54 63.8298 24.92 64.0298C25.776 64.4823 26.7024 64.7866 27.66 64.9298C28.4009 65.0148 29.1491 65.0148 29.89 64.9298C30.8171 64.8111 31.7169 64.5337 32.55 64.1098C32.79 63.9898 33.78 63.4398 34.74 62.8798L45 56.9998L53.72 51.9998C54.3828 51.5804 54.9879 51.0761 55.52 50.4998C56.6281 49.278 57.3455 47.7526 57.58 46.1198C57.64 45.7498 57.64 45.2798 57.64 33.1198C57.64 20.9598 57.64 20.4398 57.58 20.1198C57.3391 18.489 56.6225 16.9654 55.52 15.7398C54.9851 15.1666 54.3803 14.6626 53.72 14.2398C53.45 14.0698 33.58 2.59985 32.99 2.23985C31.5472 1.34499 29.8655 0.912337 28.17 0.999846ZM29.66 10.9998C30.6571 11.1971 31.5545 11.735 32.1986 12.5213C32.8426 13.3076 33.1931 14.2934 33.19 15.3098C33.1927 15.8821 33.0799 16.4489 32.8582 16.9764C32.6365 17.504 32.3106 17.9813 31.9 18.3798C31.4124 18.8687 30.8162 19.2353 30.16 19.4498C29.72 19.6016 29.2547 19.6662 28.79 19.6398C28.4739 19.6609 28.1564 19.6305 27.85 19.5498C27.2889 19.4218 26.7587 19.1839 26.29 18.8498L26.13 18.7398L25.37 19.1798L21.24 21.5598L17.86 23.5098V24.1098C17.8846 24.6072 17.8063 25.1042 17.63 25.5698C17.4407 26.1183 17.1431 26.6231 16.7548 27.0543C16.3666 27.4855 15.8957 27.8342 15.37 28.0798C14.7872 28.3502 14.1525 28.4903 13.51 28.4903C12.8675 28.4903 12.2328 28.3502 11.65 28.0798C11.1221 27.835 10.6495 27.4854 10.2609 27.0522C9.87242 26.6189 9.5761 26.1112 9.39 25.5598C9.21441 25.1079 9.13604 24.6241 9.16 24.1398C9.13443 23.667 9.2059 23.194 9.37 22.7498C9.73312 21.6711 10.5002 20.775 11.51 20.2498C12.1247 19.9217 12.8133 19.7564 13.51 19.7698C14.3804 19.7577 15.233 20.0163 15.95 20.5098L16.21 20.6798L20.36 18.2898C24.36 15.9698 24.5 15.8898 24.48 15.8198C24.4704 15.6366 24.4704 15.4531 24.48 15.2698C24.481 14.6221 24.628 13.9829 24.91 13.3998C25.3484 12.5385 26.0486 11.8382 26.91 11.3998C27.3067 11.2196 27.7228 11.0854 28.15 10.9998C28.6512 10.9346 29.1588 10.9346 29.66 10.9998ZM44.57 19.7898C45.5962 19.8949 46.5523 20.3589 47.27 21.0998C47.8632 21.7214 48.2688 22.4979 48.44 23.3398C48.5201 23.8702 48.5201 24.4095 48.44 24.9398C48.3123 25.589 48.0401 26.2011 47.6437 26.7308C47.2473 27.2605 46.7368 27.6942 46.15 27.9998C45.5351 28.3286 44.8472 28.4971 44.15 28.4898C43.3026 28.4925 42.4738 28.2417 41.77 27.7698L41.48 27.5898C41.48 27.5898 33.25 32.3198 33.22 32.3498C33.2085 32.4595 33.2085 32.5701 33.22 32.6798C33.2844 33.7254 32.9761 34.76 32.35 35.5998C31.9214 36.1482 31.3744 36.5926 30.75 36.8998L30.5 37.0198V46.5898L30.84 46.7598C31.4493 47.0822 31.9741 47.5435 32.3719 48.1064C32.7698 48.6693 33.0295 49.3179 33.13 49.9998C33.2 50.484 33.2 50.9757 33.13 51.4598C32.9406 52.4481 32.4225 53.3433 31.66 53.9998C31.2239 54.3735 30.7172 54.6557 30.17 54.8298C29.2434 55.1348 28.2414 55.1203 27.324 54.7885C26.4067 54.4568 25.6271 53.827 25.11 52.9998C24.836 52.5493 24.6399 52.0557 24.53 51.5398C24.4752 51.2634 24.4517 50.9816 24.46 50.6998C24.4522 50.4181 24.4757 50.1364 24.53 49.8598C24.7088 48.9736 25.1556 48.1637 25.81 47.5398C26.1662 47.2174 26.567 46.948 27 46.7398L27.21 46.6398V37.0598L26.96 36.9298C26.7805 36.8447 26.6068 36.7479 26.44 36.6398C26.22 36.4898 26.17 36.4599 26.11 36.4898L21.98 38.8698L17.91 41.2198V41.6698C17.9335 42.2731 17.831 42.8746 17.6088 43.4359C17.3867 43.9972 17.0499 44.5061 16.62 44.9298C15.9913 45.561 15.1858 45.9864 14.31 46.1498C13.7805 46.2397 13.2395 46.2397 12.71 46.1498C11.7171 45.9515 10.8234 45.4161 10.1801 44.6343C9.53675 43.8525 9.18345 42.8723 9.18 41.8598C9.17446 41.0639 9.38693 40.2816 9.79437 39.5978C10.2018 38.9139 10.7887 38.3547 11.4914 37.9807C12.194 37.6067 12.9857 37.4322 13.7804 37.4761C14.5752 37.5201 15.3428 37.7807 16 38.2298L16.24 38.3898L16.36 38.3298C16.43 38.3298 18.29 37.2298 20.5 35.9498L24.5 33.6298V33.0698C24.4772 32.5906 24.5485 32.1116 24.71 31.6598C24.9554 30.8954 25.4043 30.2123 26.0086 29.6838C26.6129 29.1552 27.3497 28.8012 28.14 28.6598C28.6245 28.5948 29.1155 28.5948 29.6 28.6598C30.2049 28.765 30.7808 28.9967 31.29 29.3398C31.3794 29.411 31.4811 29.4652 31.59 29.4998C31.59 29.4998 33.48 28.4198 35.73 27.1098L39.83 24.7498V24.2998C39.7922 23.398 40.0445 22.5077 40.55 21.7598C40.9074 21.225 41.377 20.7744 41.9262 20.4394C42.4753 20.1043 43.0909 19.8929 43.73 19.8198C44.0089 19.7843 44.2911 19.7843 44.57 19.8198V19.7898ZM44.84 37.5098C45.7045 37.6544 46.5057 38.055 47.14 38.6598C47.7964 39.2902 48.2432 40.1071 48.42 40.9998C48.52 41.5554 48.52 42.1243 48.42 42.6798C48.254 43.512 47.8471 44.277 47.25 44.8798C46.6221 45.5232 45.8127 45.9594 44.93 46.1298C44.3997 46.2099 43.8603 46.2099 43.33 46.1298C42.7548 46.0192 42.2075 45.7951 41.7198 45.4706C41.2322 45.1461 40.8142 44.7277 40.49 44.2398C40.1609 43.728 39.9334 43.1577 39.82 42.5598C39.76 42.0784 39.76 41.5913 39.82 41.1098C39.9448 40.3856 40.2491 39.7041 40.705 39.1277C41.1609 38.5512 41.754 38.0982 42.43 37.8098C42.811 37.6516 43.2111 37.5441 43.62 37.4898C44.0273 37.4672 44.4359 37.4839 44.84 37.5398V37.5098Z" fill="#2B689C"/>
<path d="M82 51H89.11V36.26C89.1635 32.7425 88.9898 29.2252 88.59 25.73L100.68 51H104.21L116.3 25.73C115.9 29.2252 115.726 32.7425 115.78 36.26V51H122.89V14.62H114.17L106.6 30.62C103.95 36.22 103.07 38.56 102.6 40.32C101.516 36.9892 100.179 33.7464 98.6 30.62L91 14.62H82V51ZM142 51.67C147.35 51.67 151.86 49.28 154 45.91L148.55 41.81C147.864 42.9246 146.898 43.841 145.75 44.4688C144.601 45.0966 143.309 45.4141 142 45.39C140.431 45.4211 138.902 44.8975 137.682 43.9114C136.462 42.9253 135.629 41.5402 135.33 40H155.51C155.655 39.1781 155.726 38.3447 155.72 37.51C155.72 29.72 150.12 23.29 142.02 23.29C140.159 23.2748 138.313 23.6338 136.593 24.3458C134.873 25.0578 133.314 26.1082 132.008 27.4347C130.702 28.7612 129.676 30.3366 128.991 32.0674C128.306 33.7982 127.976 35.6491 128.02 37.51C128.06 45.29 133.67 51.62 142 51.62V51.67ZM135.31 34.81C135.603 33.2769 136.422 31.894 137.624 30.8992C138.827 29.9045 140.339 29.3602 141.9 29.36C143.472 29.3794 144.992 29.9277 146.215 30.9163C147.438 31.905 148.292 33.2766 148.64 34.81H135.31ZM160.31 51H167.31V37.14C167.254 36.1828 167.4 35.2245 167.74 34.3277C168.079 33.4309 168.603 32.6157 169.279 31.9353C169.955 31.2549 170.766 30.7247 171.661 30.3792C172.555 30.0336 173.512 29.8806 174.47 29.93H175.47V23.34C170.8 23.08 168.05 25.21 167.11 29.1V24H160.31V51ZM191.17 62C199.42 62 205.23 56.86 205.23 48.56V24H198.33V27.69C196.93 25.04 194.54 23.33 190.08 23.33C182.7 23.29 177 29.41 177 37.2C177 44.99 182.66 51.1 190.08 51.1C194.44 51.1 196.77 49.44 198.22 46.95V48.14C198.252 49.0855 198.096 50.0279 197.76 50.9123C197.424 51.7967 196.915 52.6054 196.264 53.2914C195.612 53.9773 194.831 54.5267 193.965 54.9076C193.099 55.2886 192.166 55.4933 191.22 55.51C189.591 55.6097 187.962 55.3239 186.464 54.6758C184.966 54.0277 183.642 53.0356 182.6 51.78L178.25 56.91C181.5 60.7 185.76 62 191.21 62H191.17ZM184 37.2C184 32.99 186.65 29.67 191.22 29.67C195.79 29.67 198.53 32.99 198.53 37.2C198.53 41.41 195.84 44.72 191.22 44.72C186.6 44.72 184 41.3 184 37.2ZM223.83 51.62C229.18 51.62 233.69 49.23 235.83 45.86L230.38 41.76C229.696 42.8898 228.728 43.8199 227.571 44.4571C226.414 45.0942 225.11 45.416 223.79 45.39C222.232 45.4069 220.717 44.8768 219.509 43.8919C218.301 42.9071 217.477 41.5299 217.18 40H237.36C237.505 39.1781 237.576 38.3447 237.57 37.51C237.57 29.72 231.97 23.29 223.87 23.29C222.009 23.2748 220.163 23.6338 218.443 24.3458C216.723 25.0578 215.164 26.1082 213.858 27.4347C212.552 28.7612 211.526 30.3366 210.841 32.0674C210.156 33.7982 209.826 35.6491 209.87 37.51C209.91 45.29 215.52 51.62 223.87 51.62H223.83ZM217.14 34.76C217.433 33.2269 218.252 31.844 219.454 30.8492C220.657 29.8545 222.169 29.3102 223.73 29.31C225.302 29.3294 226.822 29.8777 228.045 30.8663C229.268 31.855 230.122 33.2266 230.47 34.76H217.14ZM253.5 51.62C261.75 51.62 266.79 47.16 266.79 40.62C266.79 32.32 259.31 30.45 255.06 29.1C251.89 28.1 249.3 27.23 249.3 24.53C249.3 22.09 251.42 20.53 254.3 20.53C257 20.53 258.66 21.82 260.42 24.63L266.65 20.79C263.95 16.53 260.32 14.04 254.65 14.04C246.97 14.04 241.84 18.35 241.84 24.89C241.84 30.39 245.42 33.66 251.02 35.11C255.49 36.25 259.32 37.39 259.32 41.02C259.32 43.51 257.25 45.18 253.88 45.18C250.71 45.18 247.7 43.57 245.83 39.83L239.55 43.83C242.8 49.34 247.78 51.62 253.54 51.62H253.5ZM281.3 51H285.14V44.72H282.23C280.88 44.72 280.05 43.94 280.05 42.23V29.93H285.76V24H280.05V17.79L273.05 18.51V24H269.26V30H273.05V42.59C273.05 48.46 276 51 281.3 51ZM301.25 51.67C306.07 51.67 308.51 49.67 309.97 46.59V51H316.76V24H309.81V28.26C308.36 25.35 305.92 23.43 301.25 23.43C293.83 23.43 287.91 29.82 287.91 37.6C287.91 45.38 293.83 51.62 301.25 51.62V51.67ZM294.92 37.56C294.887 36.5487 295.057 35.5411 295.422 34.5973C295.787 33.6535 296.338 32.7928 297.043 32.0668C297.748 31.3408 298.592 30.7643 299.524 30.3717C300.457 29.9791 301.459 29.7785 302.471 29.7819C303.483 29.7852 304.484 29.9925 305.414 30.3913C306.343 30.79 307.184 31.3722 307.883 32.1028C308.583 32.8335 309.129 33.6978 309.487 34.644C309.846 35.5902 310.01 36.599 309.97 37.61C310.011 38.6235 309.844 39.6346 309.48 40.5811C309.116 41.5277 308.561 42.3896 307.851 43.1138C307.141 43.8379 306.29 44.4091 305.351 44.7919C304.412 45.1748 303.404 45.3614 302.39 45.34C301.381 45.3314 300.384 45.1203 299.458 44.7192C298.532 44.3181 297.696 43.7352 296.999 43.005C296.302 42.2748 295.759 41.4122 295.402 40.4683C295.045 39.5244 294.881 38.5185 294.92 37.51V37.56ZM332.7 51H336.55V44.72H333.64C332.29 44.72 331.46 43.94 331.46 42.23V29.93H337.17V24H331.46V17.79L324.46 18.51V24H320.68V30H324.46V42.59C324.45 48.46 327.36 51 332.7 51Z" fill="#1F2937"/>
</svg>
